<mxfile host="app.diagrams.net" agent="Mozilla/5.0 (Windows NT 10.0; Win64; x64; rv:143.0) Gecko/20100101 Firefox/143.0" version="28.2.5">
  <diagram name="Seite-1" id="UK8hk1jLGYZJoJOOn0nO">
    <mxGraphModel dx="2253" dy="1956" grid="1" gridSize="10" guides="1" tooltips="1" connect="1" arrows="1" fold="1" page="1" pageScale="1" pageWidth="827" pageHeight="1169" math="0" shadow="0" adaptiveColors="simple">
      <root>
        <mxCell id="0" />
        <mxCell id="1" parent="0" />
        <mxCell id="UFHqkpC1WFeZx_tm6F1n-1" value="&lt;div&gt;k3s Worker 1&lt;/div&gt;&lt;div&gt;Ingress&lt;/div&gt;" style="rounded=1;whiteSpace=wrap;html=1;fontStyle=1;labelBackgroundColor=none;fillColor=#60a917;fontColor=#ffffff;strokeColor=#2D7600;" parent="1" vertex="1">
          <mxGeometry x="120" y="360" width="120" height="80" as="geometry" />
        </mxCell>
        <mxCell id="UFHqkpC1WFeZx_tm6F1n-2" value="&lt;div&gt;k3s Host 2&lt;/div&gt;" style="rounded=1;whiteSpace=wrap;html=1;fontStyle=1;labelBackgroundColor=none;fillColor=#008a00;fontColor=#ffffff;strokeColor=#005700;" parent="1" vertex="1">
          <mxGeometry x="280" y="200" width="120" height="80" as="geometry" />
        </mxCell>
        <mxCell id="UFHqkpC1WFeZx_tm6F1n-3" value="&lt;div&gt;k3s Host 3&lt;/div&gt;" style="rounded=1;whiteSpace=wrap;html=1;fontStyle=1;labelBackgroundColor=none;fillColor=#008a00;fontColor=#ffffff;strokeColor=#005700;" parent="1" vertex="1">
          <mxGeometry x="440" y="200" width="120" height="80" as="geometry" />
        </mxCell>
        <mxCell id="UFHqkpC1WFeZx_tm6F1n-4" value="&lt;div&gt;HAProxy 1&lt;/div&gt;&lt;div&gt;VPN 1&lt;/div&gt;" style="rounded=1;whiteSpace=wrap;html=1;fontStyle=1;labelBackgroundColor=none;fillColor=#1ba1e2;fontColor=#ffffff;strokeColor=#006EAF;" parent="1" vertex="1">
          <mxGeometry x="600" y="200" width="120" height="80" as="geometry" />
        </mxCell>
        <mxCell id="UFHqkpC1WFeZx_tm6F1n-5" value="&lt;div&gt;HAProxy 2&lt;/div&gt;&lt;div&gt;VPN 2&lt;/div&gt;" style="rounded=1;whiteSpace=wrap;html=1;fontStyle=1;labelBackgroundColor=none;fillColor=#1ba1e2;fontColor=#ffffff;strokeColor=#006EAF;" parent="1" vertex="1">
          <mxGeometry x="760" y="200" width="120" height="80" as="geometry" />
        </mxCell>
        <mxCell id="UFHqkpC1WFeZx_tm6F1n-6" value="&lt;div&gt;k3s Host 1&lt;/div&gt;" style="rounded=1;whiteSpace=wrap;html=1;fontStyle=1;labelBackgroundColor=none;fillColor=#008a00;fontColor=#ffffff;strokeColor=#005700;" parent="1" vertex="1">
          <mxGeometry x="120" y="200" width="120" height="80" as="geometry" />
        </mxCell>
        <mxCell id="UFHqkpC1WFeZx_tm6F1n-7" value="&lt;div&gt;k3s Worker&amp;nbsp;2&lt;/div&gt;" style="rounded=1;whiteSpace=wrap;html=1;fontStyle=1;labelBackgroundColor=none;fillColor=#60a917;fontColor=#ffffff;strokeColor=#2D7600;" parent="1" vertex="1">
          <mxGeometry x="280" y="360" width="120" height="80" as="geometry" />
        </mxCell>
        <mxCell id="UFHqkpC1WFeZx_tm6F1n-8" value="&lt;div&gt;k3s Worker&amp;nbsp;3&lt;/div&gt;" style="rounded=1;whiteSpace=wrap;html=1;fontStyle=1;labelBackgroundColor=none;fillColor=#60a917;fontColor=#ffffff;strokeColor=#2D7600;" parent="1" vertex="1">
          <mxGeometry x="440" y="360" width="120" height="80" as="geometry" />
        </mxCell>
        <mxCell id="UFHqkpC1WFeZx_tm6F1n-9" value="&lt;div&gt;k3s Worker&amp;nbsp;4&lt;/div&gt;" style="rounded=1;whiteSpace=wrap;html=1;fontStyle=1;labelBackgroundColor=none;fillColor=#60a917;fontColor=#ffffff;strokeColor=#2D7600;" parent="1" vertex="1">
          <mxGeometry x="600" y="360" width="120" height="80" as="geometry" />
        </mxCell>
        <mxCell id="UFHqkpC1WFeZx_tm6F1n-10" value="&lt;div&gt;k3s Worker&amp;nbsp;5&lt;/div&gt;" style="rounded=1;whiteSpace=wrap;html=1;fontStyle=1;labelBackgroundColor=none;fillColor=#60a917;fontColor=#ffffff;strokeColor=#2D7600;" parent="1" vertex="1">
          <mxGeometry x="760" y="360" width="120" height="80" as="geometry" />
        </mxCell>
        <mxCell id="UFHqkpC1WFeZx_tm6F1n-11" value="&lt;div&gt;k3s Worker&amp;nbsp;6&lt;/div&gt;&lt;div&gt;Ingress&lt;/div&gt;" style="rounded=1;whiteSpace=wrap;html=1;fontStyle=1;labelBackgroundColor=none;fillColor=#60a917;fontColor=#ffffff;strokeColor=#2D7600;" parent="1" vertex="1">
          <mxGeometry x="120" y="520" width="120" height="80" as="geometry" />
        </mxCell>
        <mxCell id="UFHqkpC1WFeZx_tm6F1n-12" value="&lt;div&gt;k3s Worker&amp;nbsp;7&lt;/div&gt;" style="rounded=1;whiteSpace=wrap;html=1;fontStyle=1;labelBackgroundColor=none;fillColor=#60a917;fontColor=#ffffff;strokeColor=#2D7600;" parent="1" vertex="1">
          <mxGeometry x="280" y="520" width="120" height="80" as="geometry" />
        </mxCell>
        <mxCell id="UFHqkpC1WFeZx_tm6F1n-13" value="&lt;div&gt;k3s Worker&amp;nbsp;8&lt;/div&gt;" style="rounded=1;whiteSpace=wrap;html=1;fontStyle=1;labelBackgroundColor=none;fillColor=#60a917;fontColor=#ffffff;strokeColor=#2D7600;" parent="1" vertex="1">
          <mxGeometry x="440" y="520" width="120" height="80" as="geometry" />
        </mxCell>
        <mxCell id="UFHqkpC1WFeZx_tm6F1n-14" value="&lt;div&gt;k3s Worker&amp;nbsp;9&lt;/div&gt;" style="rounded=1;whiteSpace=wrap;html=1;fontStyle=1;labelBackgroundColor=none;fillColor=#60a917;fontColor=#ffffff;strokeColor=#2D7600;" parent="1" vertex="1">
          <mxGeometry x="600" y="520" width="120" height="80" as="geometry" />
        </mxCell>
        <mxCell id="UFHqkpC1WFeZx_tm6F1n-15" value="&lt;div&gt;k3s Worker&amp;nbsp;10&lt;/div&gt;" style="rounded=1;whiteSpace=wrap;html=1;fontSize=12;fontStyle=1;labelBackgroundColor=none;fillColor=#60a917;fontColor=#ffffff;strokeColor=#2D7600;" parent="1" vertex="1">
          <mxGeometry x="760" y="520" width="120" height="80" as="geometry" />
        </mxCell>
        <mxCell id="UFHqkpC1WFeZx_tm6F1n-16" value="Ceph Node 1" style="rounded=1;whiteSpace=wrap;html=1;fontStyle=1;labelBackgroundColor=none;fillColor=#647687;fontColor=#ffffff;strokeColor=#314354;" parent="1" vertex="1">
          <mxGeometry x="120" y="680" width="120" height="80" as="geometry" />
        </mxCell>
        <mxCell id="UFHqkpC1WFeZx_tm6F1n-17" value="Ceph Node 2" style="rounded=1;whiteSpace=wrap;html=1;fontStyle=1;labelBackgroundColor=none;fillColor=#647687;fontColor=#ffffff;strokeColor=#314354;" parent="1" vertex="1">
          <mxGeometry x="280" y="680" width="120" height="80" as="geometry" />
        </mxCell>
        <mxCell id="UFHqkpC1WFeZx_tm6F1n-18" value="Ceph Node 3" style="rounded=1;whiteSpace=wrap;html=1;fontStyle=1;labelBackgroundColor=none;fillColor=#647687;fontColor=#ffffff;strokeColor=#314354;" parent="1" vertex="1">
          <mxGeometry x="440" y="680" width="120" height="80" as="geometry" />
        </mxCell>
        <mxCell id="UFHqkpC1WFeZx_tm6F1n-19" value="Ceph Node 4" style="rounded=1;whiteSpace=wrap;html=1;fontStyle=1;labelBackgroundColor=none;fillColor=#647687;fontColor=#ffffff;strokeColor=#314354;" parent="1" vertex="1">
          <mxGeometry x="600" y="680" width="120" height="80" as="geometry" />
        </mxCell>
        <mxCell id="UFHqkpC1WFeZx_tm6F1n-20" value="Ceph Node 5" style="rounded=1;whiteSpace=wrap;html=1;fontStyle=1;labelBackgroundColor=none;fillColor=#647687;fontColor=#ffffff;strokeColor=#314354;" parent="1" vertex="1">
          <mxGeometry x="760" y="680" width="120" height="80" as="geometry" />
        </mxCell>
        <mxCell id="UFHqkpC1WFeZx_tm6F1n-21" value="PoE Switch 1" style="rounded=0;whiteSpace=wrap;html=1;align=left;verticalAlign=top;spacingLeft=3;labelBackgroundColor=none;" parent="1" vertex="1">
          <mxGeometry x="1121" y="200" width="359" height="80" as="geometry" />
        </mxCell>
        <mxCell id="UFHqkpC1WFeZx_tm6F1n-22" value="PoE Switch 2" style="rounded=0;whiteSpace=wrap;html=1;align=left;verticalAlign=top;spacingLeft=3;labelBackgroundColor=none;" parent="1" vertex="1">
          <mxGeometry x="1121" y="360" width="359" height="80" as="geometry" />
        </mxCell>
        <mxCell id="UFHqkpC1WFeZx_tm6F1n-23" value="PoE Switch 3" style="rounded=0;whiteSpace=wrap;html=1;align=left;verticalAlign=top;spacingLeft=3;labelBackgroundColor=none;" parent="1" vertex="1">
          <mxGeometry x="1121" y="520" width="359" height="80" as="geometry" />
        </mxCell>
        <mxCell id="UFHqkpC1WFeZx_tm6F1n-24" value="PoE Switch 4" style="rounded=0;whiteSpace=wrap;html=1;align=left;verticalAlign=top;spacingLeft=3;labelBackgroundColor=none;" parent="1" vertex="1">
          <mxGeometry x="1121" y="680" width="359" height="80" as="geometry" />
        </mxCell>
        <mxCell id="UFHqkpC1WFeZx_tm6F1n-25" value="Core Switch" style="rounded=0;whiteSpace=wrap;html=1;verticalAlign=top;align=left;spacingLeft=3;labelBackgroundColor=none;" parent="1" vertex="1">
          <mxGeometry x="1560" y="440" width="359" height="80" as="geometry" />
        </mxCell>
        <mxCell id="UFHqkpC1WFeZx_tm6F1n-40" style="edgeStyle=orthogonalEdgeStyle;rounded=0;orthogonalLoop=1;jettySize=auto;html=1;entryX=0.5;entryY=1;entryDx=0;entryDy=0;strokeWidth=2;labelBackgroundColor=none;fontColor=default;" parent="1" source="UFHqkpC1WFeZx_tm6F1n-26" target="UFHqkpC1WFeZx_tm6F1n-33" edge="1">
          <mxGeometry relative="1" as="geometry">
            <Array as="points">
              <mxPoint x="1520" y="410" />
              <mxPoint x="1520" y="530" />
              <mxPoint x="1640" y="530" />
            </Array>
          </mxGeometry>
        </mxCell>
        <mxCell id="UFHqkpC1WFeZx_tm6F1n-26" value="" style="rounded=1;whiteSpace=wrap;html=1;labelBackgroundColor=none;" parent="1" vertex="1">
          <mxGeometry x="1430" y="390" width="40" height="40" as="geometry" />
        </mxCell>
        <mxCell id="UFHqkpC1WFeZx_tm6F1n-39" style="edgeStyle=orthogonalEdgeStyle;rounded=0;orthogonalLoop=1;jettySize=auto;html=1;entryX=0.5;entryY=1;entryDx=0;entryDy=0;strokeWidth=2;labelBackgroundColor=none;fontColor=default;" parent="1" source="UFHqkpC1WFeZx_tm6F1n-27" target="UFHqkpC1WFeZx_tm6F1n-32" edge="1">
          <mxGeometry relative="1" as="geometry" />
        </mxCell>
        <mxCell id="UFHqkpC1WFeZx_tm6F1n-27" value="" style="rounded=1;whiteSpace=wrap;html=1;labelBackgroundColor=none;" parent="1" vertex="1">
          <mxGeometry x="1430" y="230" width="40" height="40" as="geometry" />
        </mxCell>
        <mxCell id="UFHqkpC1WFeZx_tm6F1n-41" style="edgeStyle=orthogonalEdgeStyle;rounded=0;orthogonalLoop=1;jettySize=auto;html=1;entryX=0.5;entryY=1;entryDx=0;entryDy=0;strokeWidth=2;labelBackgroundColor=none;fontColor=default;" parent="1" source="UFHqkpC1WFeZx_tm6F1n-28" target="UFHqkpC1WFeZx_tm6F1n-34" edge="1">
          <mxGeometry relative="1" as="geometry" />
        </mxCell>
        <mxCell id="UFHqkpC1WFeZx_tm6F1n-28" value="" style="rounded=1;whiteSpace=wrap;html=1;labelBackgroundColor=none;" parent="1" vertex="1">
          <mxGeometry x="1430" y="550" width="40" height="40" as="geometry" />
        </mxCell>
        <mxCell id="UFHqkpC1WFeZx_tm6F1n-42" style="edgeStyle=orthogonalEdgeStyle;rounded=0;orthogonalLoop=1;jettySize=auto;html=1;entryX=0.5;entryY=1;entryDx=0;entryDy=0;strokeWidth=2;labelBackgroundColor=none;fontColor=default;" parent="1" source="UFHqkpC1WFeZx_tm6F1n-30" target="UFHqkpC1WFeZx_tm6F1n-35" edge="1">
          <mxGeometry relative="1" as="geometry" />
        </mxCell>
        <mxCell id="UFHqkpC1WFeZx_tm6F1n-30" value="" style="rounded=1;whiteSpace=wrap;html=1;labelBackgroundColor=none;" parent="1" vertex="1">
          <mxGeometry x="1430" y="710" width="40" height="40" as="geometry" />
        </mxCell>
        <mxCell id="UFHqkpC1WFeZx_tm6F1n-31" value="" style="rounded=1;whiteSpace=wrap;html=1;labelBackgroundColor=none;fillColor=#1ba1e2;fontColor=#ffffff;strokeColor=#006EAF;" parent="1" vertex="1">
          <mxGeometry x="1130" y="390" width="40" height="40" as="geometry" />
        </mxCell>
        <mxCell id="UFHqkpC1WFeZx_tm6F1n-32" value="" style="rounded=1;whiteSpace=wrap;html=1;labelBackgroundColor=none;" parent="1" vertex="1">
          <mxGeometry x="1570" y="470" width="40" height="40" as="geometry" />
        </mxCell>
        <mxCell id="UFHqkpC1WFeZx_tm6F1n-33" value="" style="rounded=1;whiteSpace=wrap;html=1;labelBackgroundColor=none;" parent="1" vertex="1">
          <mxGeometry x="1620" y="470" width="40" height="40" as="geometry" />
        </mxCell>
        <mxCell id="UFHqkpC1WFeZx_tm6F1n-34" value="" style="rounded=1;whiteSpace=wrap;html=1;labelBackgroundColor=none;" parent="1" vertex="1">
          <mxGeometry x="1670" y="470" width="40" height="40" as="geometry" />
        </mxCell>
        <mxCell id="UFHqkpC1WFeZx_tm6F1n-35" value="" style="rounded=1;whiteSpace=wrap;html=1;labelBackgroundColor=none;" parent="1" vertex="1">
          <mxGeometry x="1719.5" y="470" width="40" height="40" as="geometry" />
        </mxCell>
        <mxCell id="UFHqkpC1WFeZx_tm6F1n-38" style="edgeStyle=orthogonalEdgeStyle;rounded=0;orthogonalLoop=1;jettySize=auto;html=1;entryX=0;entryY=0.5;entryDx=0;entryDy=0;strokeWidth=2;labelBackgroundColor=none;fontColor=default;" parent="1" source="UFHqkpC1WFeZx_tm6F1n-36" target="UFHqkpC1WFeZx_tm6F1n-37" edge="1">
          <mxGeometry relative="1" as="geometry" />
        </mxCell>
        <mxCell id="UFHqkpC1WFeZx_tm6F1n-36" value="" style="rounded=1;whiteSpace=wrap;html=1;labelBackgroundColor=none;" parent="1" vertex="1">
          <mxGeometry x="1870" y="470" width="40" height="40" as="geometry" />
        </mxCell>
        <mxCell id="UFHqkpC1WFeZx_tm6F1n-63" style="edgeStyle=orthogonalEdgeStyle;rounded=0;orthogonalLoop=1;jettySize=auto;html=1;entryX=0.5;entryY=1;entryDx=0;entryDy=0;strokeWidth=2;labelBackgroundColor=none;fontColor=default;" parent="1" source="UFHqkpC1WFeZx_tm6F1n-37" target="UFHqkpC1WFeZx_tm6F1n-48" edge="1">
          <mxGeometry relative="1" as="geometry" />
        </mxCell>
        <mxCell id="UFHqkpC1WFeZx_tm6F1n-37" value="Router" style="ellipse;whiteSpace=wrap;html=1;aspect=fixed;labelBackgroundColor=none;fillColor=#6a00ff;strokeColor=#3700CC;fontColor=#ffffff;" parent="1" vertex="1">
          <mxGeometry x="2040" y="440" width="80" height="80" as="geometry" />
        </mxCell>
        <mxCell id="UFHqkpC1WFeZx_tm6F1n-43" style="edgeStyle=orthogonalEdgeStyle;rounded=0;orthogonalLoop=1;jettySize=auto;html=1;entryX=0;entryY=0.5;entryDx=0;entryDy=0;strokeWidth=2;exitX=0.5;exitY=0;exitDx=0;exitDy=0;labelBackgroundColor=none;fontColor=default;fillColor=#1ba1e2;strokeColor=#006EAF;" parent="1" source="UFHqkpC1WFeZx_tm6F1n-5" target="UFHqkpC1WFeZx_tm6F1n-45" edge="1">
          <mxGeometry relative="1" as="geometry">
            <Array as="points">
              <mxPoint x="820" y="180" />
              <mxPoint x="980" y="180" />
              <mxPoint x="980" y="250" />
            </Array>
          </mxGeometry>
        </mxCell>
        <mxCell id="UFHqkpC1WFeZx_tm6F1n-45" value="" style="rounded=1;whiteSpace=wrap;html=1;labelBackgroundColor=none;fillColor=#1ba1e2;fontColor=#ffffff;strokeColor=#006EAF;" parent="1" vertex="1">
          <mxGeometry x="1130" y="230" width="40" height="40" as="geometry" />
        </mxCell>
        <mxCell id="UFHqkpC1WFeZx_tm6F1n-44" style="edgeStyle=orthogonalEdgeStyle;rounded=0;orthogonalLoop=1;jettySize=auto;html=1;exitX=0.5;exitY=0;exitDx=0;exitDy=0;strokeWidth=2;entryX=0;entryY=0.5;entryDx=0;entryDy=0;labelBackgroundColor=none;fontColor=default;fillColor=#1ba1e2;strokeColor=#006EAF;" parent="1" source="UFHqkpC1WFeZx_tm6F1n-4" target="UFHqkpC1WFeZx_tm6F1n-31" edge="1">
          <mxGeometry relative="1" as="geometry">
            <mxPoint x="1000" y="410" as="targetPoint" />
            <Array as="points">
              <mxPoint x="660" y="180" />
              <mxPoint x="980" y="180" />
              <mxPoint x="980" y="410" />
            </Array>
          </mxGeometry>
        </mxCell>
        <mxCell id="UFHqkpC1WFeZx_tm6F1n-46" value="" style="shape=curlyBracket;whiteSpace=wrap;html=1;rounded=1;flipH=1;labelPosition=right;verticalLabelPosition=middle;align=left;verticalAlign=middle;rotation=-90;strokeWidth=2;labelBackgroundColor=none;" parent="1" vertex="1">
          <mxGeometry x="729.38" y="-29.37" width="20" height="278.75" as="geometry" />
        </mxCell>
        <mxCell id="UFHqkpC1WFeZx_tm6F1n-47" value="KeepaliveD vIP" style="text;html=1;align=center;verticalAlign=middle;whiteSpace=wrap;rounded=0;labelBackgroundColor=none;" parent="1" vertex="1">
          <mxGeometry x="600" y="80" width="280" height="20" as="geometry" />
        </mxCell>
        <mxCell id="UFHqkpC1WFeZx_tm6F1n-52" style="edgeStyle=orthogonalEdgeStyle;rounded=0;orthogonalLoop=1;jettySize=auto;html=1;entryX=1;entryY=0.5;entryDx=0;entryDy=0;strokeWidth=2;labelBackgroundColor=none;fontColor=default;" parent="1" source="UFHqkpC1WFeZx_tm6F1n-48" target="UFHqkpC1WFeZx_tm6F1n-47" edge="1">
          <mxGeometry relative="1" as="geometry">
            <mxPoint x="1360" y="60" as="targetPoint" />
            <Array as="points">
              <mxPoint x="1720" y="360" />
              <mxPoint x="1720" y="90" />
            </Array>
          </mxGeometry>
        </mxCell>
        <mxCell id="UFHqkpC1WFeZx_tm6F1n-48" value="DNS Entries" style="swimlane;whiteSpace=wrap;html=1;labelBackgroundColor=none;" parent="1" vertex="1">
          <mxGeometry x="2020" y="320" width="120" height="80" as="geometry" />
        </mxCell>
        <mxCell id="UFHqkpC1WFeZx_tm6F1n-49" value="*.domain.io" style="text;html=1;align=center;verticalAlign=middle;resizable=0;points=[];autosize=1;strokeColor=none;fillColor=none;labelBackgroundColor=none;" parent="UFHqkpC1WFeZx_tm6F1n-48" vertex="1">
          <mxGeometry x="20" y="35" width="80" height="30" as="geometry" />
        </mxCell>
        <mxCell id="UFHqkpC1WFeZx_tm6F1n-50" value="" style="shape=curlyBracket;whiteSpace=wrap;html=1;rounded=1;flipH=1;labelPosition=right;verticalLabelPosition=middle;align=left;verticalAlign=middle;rotation=-90;strokeWidth=2;labelBackgroundColor=none;" parent="1" vertex="1">
          <mxGeometry x="728.76" y="-110" width="20" height="278.75" as="geometry" />
        </mxCell>
        <mxCell id="UFHqkpC1WFeZx_tm6F1n-60" style="edgeStyle=orthogonalEdgeStyle;rounded=0;orthogonalLoop=1;jettySize=auto;html=1;entryX=0;entryY=0.5;entryDx=0;entryDy=0;labelBackgroundColor=none;fontColor=default;" parent="1" source="UFHqkpC1WFeZx_tm6F1n-51" target="UFHqkpC1WFeZx_tm6F1n-59" edge="1">
          <mxGeometry relative="1" as="geometry" />
        </mxCell>
        <mxCell id="UFHqkpC1WFeZx_tm6F1n-51" value="Wireguard VPN" style="text;html=1;align=center;verticalAlign=middle;whiteSpace=wrap;rounded=0;labelBackgroundColor=none;" parent="1" vertex="1">
          <mxGeometry x="599.38" y="-0.6299999999999955" width="280" height="20" as="geometry" />
        </mxCell>
        <mxCell id="UFHqkpC1WFeZx_tm6F1n-53" value="VPC" style="ellipse;shape=cloud;whiteSpace=wrap;html=1;fontStyle=1;fontSize=18;labelBackgroundColor=none;fillColor=#0050ef;strokeColor=#001DBC;fontColor=#ffffff;" parent="1" vertex="1">
          <mxGeometry x="600" y="-250" width="280" height="130" as="geometry" />
        </mxCell>
        <mxCell id="UFHqkpC1WFeZx_tm6F1n-54" value="" style="shape=cylinder3;whiteSpace=wrap;html=1;boundedLbl=1;backgroundOutline=1;size=15;labelBackgroundColor=none;" parent="1" vertex="1">
          <mxGeometry x="710" y="-120" width="60" height="110" as="geometry" />
        </mxCell>
        <mxCell id="UFHqkpC1WFeZx_tm6F1n-55" value="" style="shape=flexArrow;endArrow=classic;html=1;rounded=0;strokeWidth=2;exitX=0.5;exitY=0;exitDx=0;exitDy=0;exitPerimeter=0;entryX=0.5;entryY=1;entryDx=0;entryDy=0;entryPerimeter=0;labelBackgroundColor=none;fontColor=default;" parent="1" source="UFHqkpC1WFeZx_tm6F1n-54" target="UFHqkpC1WFeZx_tm6F1n-54" edge="1">
          <mxGeometry width="50" height="50" relative="1" as="geometry">
            <mxPoint x="739.6600000000001" y="-139" as="sourcePoint" />
            <mxPoint x="739.6600000000001" y="0.37000000000000455" as="targetPoint" />
          </mxGeometry>
        </mxCell>
        <mxCell id="UFHqkpC1WFeZx_tm6F1n-56" value="Wireguard Tunnel" style="text;html=1;align=center;verticalAlign=middle;whiteSpace=wrap;rounded=0;labelBackgroundColor=none;" parent="1" vertex="1">
          <mxGeometry x="800" y="-80" width="120" height="40" as="geometry" />
        </mxCell>
        <mxCell id="UFHqkpC1WFeZx_tm6F1n-57" value="HAProxy L4 Forwarding" style="text;html=1;align=center;verticalAlign=middle;whiteSpace=wrap;rounded=0;labelBackgroundColor=none;" parent="1" vertex="1">
          <mxGeometry x="560" y="-80" width="120" height="40" as="geometry" />
        </mxCell>
        <mxCell id="UFHqkpC1WFeZx_tm6F1n-59" value="Single IP VPN Forwarding" style="text;html=1;align=center;verticalAlign=middle;whiteSpace=wrap;rounded=0;labelBackgroundColor=none;" parent="1" vertex="1">
          <mxGeometry x="930" y="-10.630000000000003" width="120" height="40" as="geometry" />
        </mxCell>
        <mxCell id="UFHqkpC1WFeZx_tm6F1n-61" value="DNS Entries" style="swimlane;whiteSpace=wrap;html=1;labelBackgroundColor=none;" parent="1" vertex="1">
          <mxGeometry x="678.76" y="-360" width="120" height="80" as="geometry" />
        </mxCell>
        <mxCell id="UFHqkpC1WFeZx_tm6F1n-62" value="*.domain-public.io" style="text;html=1;align=center;verticalAlign=middle;resizable=0;points=[];autosize=1;strokeColor=none;fillColor=none;labelBackgroundColor=none;" parent="UFHqkpC1WFeZx_tm6F1n-61" vertex="1">
          <mxGeometry y="35" width="120" height="30" as="geometry" />
        </mxCell>
        <mxCell id="UFHqkpC1WFeZx_tm6F1n-64" style="edgeStyle=orthogonalEdgeStyle;rounded=0;orthogonalLoop=1;jettySize=auto;html=1;entryX=0.4;entryY=0.1;entryDx=0;entryDy=0;entryPerimeter=0;strokeWidth=2;labelBackgroundColor=none;fontColor=default;" parent="1" source="UFHqkpC1WFeZx_tm6F1n-61" target="UFHqkpC1WFeZx_tm6F1n-53" edge="1">
          <mxGeometry relative="1" as="geometry" />
        </mxCell>
        <mxCell id="UFHqkpC1WFeZx_tm6F1n-66" style="edgeStyle=orthogonalEdgeStyle;rounded=0;orthogonalLoop=1;jettySize=auto;html=1;entryX=0.5;entryY=0;entryDx=0;entryDy=0;strokeWidth=2;labelBackgroundColor=none;fontColor=default;" parent="1" source="UFHqkpC1WFeZx_tm6F1n-65" target="UFHqkpC1WFeZx_tm6F1n-61" edge="1">
          <mxGeometry relative="1" as="geometry" />
        </mxCell>
        <mxCell id="UFHqkpC1WFeZx_tm6F1n-65" value="Public Internet" style="ellipse;shape=cloud;whiteSpace=wrap;html=1;fontStyle=1;fontSize=18;labelBackgroundColor=none;fillColor=#0050ef;strokeColor=#001DBC;fontColor=#ffffff;" parent="1" vertex="1">
          <mxGeometry x="598.76" y="-570" width="280" height="130" as="geometry" />
        </mxCell>
        <mxCell id="UFHqkpC1WFeZx_tm6F1n-67" value="" style="rounded=1;whiteSpace=wrap;html=1;labelBackgroundColor=none;fillColor=#008a00;fontColor=#ffffff;strokeColor=#005700;" parent="1" vertex="1">
          <mxGeometry x="1130" y="550" width="40" height="40" as="geometry" />
        </mxCell>
        <mxCell id="UFHqkpC1WFeZx_tm6F1n-68" value="" style="rounded=1;whiteSpace=wrap;html=1;labelBackgroundColor=none;fillColor=#008a00;fontColor=#ffffff;strokeColor=#005700;" parent="1" vertex="1">
          <mxGeometry x="1180" y="230" width="40" height="40" as="geometry" />
        </mxCell>
        <mxCell id="UFHqkpC1WFeZx_tm6F1n-69" value="" style="rounded=1;whiteSpace=wrap;html=1;labelBackgroundColor=none;fillColor=#008a00;fontColor=#ffffff;strokeColor=#005700;" parent="1" vertex="1">
          <mxGeometry x="1180" y="390" width="40" height="40" as="geometry" />
        </mxCell>
        <mxCell id="UFHqkpC1WFeZx_tm6F1n-71" style="edgeStyle=orthogonalEdgeStyle;rounded=0;orthogonalLoop=1;jettySize=auto;html=1;entryX=0.5;entryY=1;entryDx=0;entryDy=0;exitX=0.5;exitY=1;exitDx=0;exitDy=0;strokeWidth=2;labelBackgroundColor=none;fontColor=default;fillColor=#60a917;strokeColor=#2D7600;" parent="1" source="UFHqkpC1WFeZx_tm6F1n-3" target="UFHqkpC1WFeZx_tm6F1n-68" edge="1">
          <mxGeometry relative="1" as="geometry">
            <Array as="points">
              <mxPoint x="500" y="300" />
              <mxPoint x="1200" y="300" />
            </Array>
          </mxGeometry>
        </mxCell>
        <mxCell id="UFHqkpC1WFeZx_tm6F1n-72" style="edgeStyle=orthogonalEdgeStyle;rounded=0;orthogonalLoop=1;jettySize=auto;html=1;entryX=0.5;entryY=1;entryDx=0;entryDy=0;exitX=0.5;exitY=1;exitDx=0;exitDy=0;strokeWidth=2;labelBackgroundColor=none;fontColor=default;fillColor=#60a917;strokeColor=#2D7600;" parent="1" source="UFHqkpC1WFeZx_tm6F1n-2" target="UFHqkpC1WFeZx_tm6F1n-69" edge="1">
          <mxGeometry relative="1" as="geometry">
            <Array as="points">
              <mxPoint x="340" y="300" />
              <mxPoint x="1000" y="300" />
              <mxPoint x="1000" y="460" />
              <mxPoint x="1200" y="460" />
            </Array>
          </mxGeometry>
        </mxCell>
        <mxCell id="UFHqkpC1WFeZx_tm6F1n-73" style="edgeStyle=orthogonalEdgeStyle;rounded=0;orthogonalLoop=1;jettySize=auto;html=1;entryX=0;entryY=0.5;entryDx=0;entryDy=0;exitX=0.5;exitY=1;exitDx=0;exitDy=0;strokeWidth=2;labelBackgroundColor=none;fontColor=default;fillColor=#60a917;strokeColor=#2D7600;" parent="1" source="UFHqkpC1WFeZx_tm6F1n-6" target="UFHqkpC1WFeZx_tm6F1n-67" edge="1">
          <mxGeometry relative="1" as="geometry">
            <Array as="points">
              <mxPoint x="180" y="300" />
              <mxPoint x="1000" y="300" />
              <mxPoint x="1000" y="570" />
            </Array>
          </mxGeometry>
        </mxCell>
        <mxCell id="UFHqkpC1WFeZx_tm6F1n-74" value="" style="rounded=1;whiteSpace=wrap;html=1;labelBackgroundColor=none;fillColor=#647687;fontColor=#ffffff;strokeColor=#314354;" parent="1" vertex="1">
          <mxGeometry x="1180" y="550" width="40" height="40" as="geometry" />
        </mxCell>
        <mxCell id="UFHqkpC1WFeZx_tm6F1n-75" value="" style="rounded=1;whiteSpace=wrap;html=1;labelBackgroundColor=none;fillColor=#647687;fontColor=#ffffff;strokeColor=#314354;" parent="1" vertex="1">
          <mxGeometry x="1130" y="710" width="40" height="40" as="geometry" />
        </mxCell>
        <mxCell id="UFHqkpC1WFeZx_tm6F1n-76" style="edgeStyle=orthogonalEdgeStyle;rounded=0;orthogonalLoop=1;jettySize=auto;html=1;entryX=0.5;entryY=1;entryDx=0;entryDy=0;strokeWidth=2;exitX=0.5;exitY=1;exitDx=0;exitDy=0;labelBackgroundColor=none;fontColor=default;fillColor=#647687;strokeColor=#647687;" parent="1" source="UFHqkpC1WFeZx_tm6F1n-16" target="UFHqkpC1WFeZx_tm6F1n-74" edge="1">
          <mxGeometry relative="1" as="geometry">
            <Array as="points">
              <mxPoint x="180" y="800" />
              <mxPoint x="960" y="800" />
              <mxPoint x="960" y="640" />
              <mxPoint x="1200" y="640" />
            </Array>
          </mxGeometry>
        </mxCell>
        <mxCell id="UFHqkpC1WFeZx_tm6F1n-77" style="edgeStyle=orthogonalEdgeStyle;rounded=0;orthogonalLoop=1;jettySize=auto;html=1;entryX=0;entryY=0.5;entryDx=0;entryDy=0;exitX=0.5;exitY=1;exitDx=0;exitDy=0;strokeWidth=2;labelBackgroundColor=none;fontColor=default;fillColor=#647687;strokeColor=#647687;" parent="1" source="UFHqkpC1WFeZx_tm6F1n-17" target="UFHqkpC1WFeZx_tm6F1n-75" edge="1">
          <mxGeometry relative="1" as="geometry">
            <Array as="points">
              <mxPoint x="340" y="800" />
              <mxPoint x="960" y="800" />
              <mxPoint x="960" y="730" />
            </Array>
          </mxGeometry>
        </mxCell>
        <mxCell id="UFHqkpC1WFeZx_tm6F1n-78" value="" style="shape=curlyBracket;whiteSpace=wrap;html=1;rounded=1;flipH=1;labelPosition=right;verticalLabelPosition=middle;align=left;verticalAlign=middle;rotation=-180;strokeWidth=2;labelBackgroundColor=none;" parent="1" vertex="1">
          <mxGeometry x="60" y="358.76" width="20" height="239.38" as="geometry" />
        </mxCell>
        <mxCell id="UFHqkpC1WFeZx_tm6F1n-79" value="" style="shape=curlyBracket;whiteSpace=wrap;html=1;rounded=1;flipH=1;labelPosition=right;verticalLabelPosition=middle;align=left;verticalAlign=middle;rotation=-180;strokeWidth=2;labelBackgroundColor=none;" parent="1" vertex="1">
          <mxGeometry x="60" y="681.24" width="20" height="80" as="geometry" />
        </mxCell>
        <mxCell id="UFHqkpC1WFeZx_tm6F1n-80" style="edgeStyle=orthogonalEdgeStyle;rounded=0;orthogonalLoop=1;jettySize=auto;html=1;entryX=0.1;entryY=0.5;entryDx=0;entryDy=0;entryPerimeter=0;exitX=0.1;exitY=0.5;exitDx=0;exitDy=0;exitPerimeter=0;strokeWidth=2;labelBackgroundColor=none;fontColor=default;" parent="1" source="UFHqkpC1WFeZx_tm6F1n-78" target="UFHqkpC1WFeZx_tm6F1n-79" edge="1">
          <mxGeometry relative="1" as="geometry">
            <Array as="points">
              <mxPoint y="479" />
              <mxPoint y="721" />
            </Array>
          </mxGeometry>
        </mxCell>
        <mxCell id="UFHqkpC1WFeZx_tm6F1n-81" value="CephFS CSI" style="text;html=1;align=center;verticalAlign=middle;whiteSpace=wrap;rounded=0;fontStyle=1;fontSize=18;labelBackgroundColor=none;" parent="1" vertex="1">
          <mxGeometry x="-120" y="480" width="120" height="240" as="geometry" />
        </mxCell>
        <mxCell id="UFHqkpC1WFeZx_tm6F1n-83" value="" style="rounded=1;whiteSpace=wrap;html=1;labelBackgroundColor=none;fillColor=#647687;fontColor=#ffffff;strokeColor=#314354;" parent="1" vertex="1">
          <mxGeometry x="1230" y="230" width="40" height="40" as="geometry" />
        </mxCell>
        <mxCell id="UFHqkpC1WFeZx_tm6F1n-82" style="edgeStyle=orthogonalEdgeStyle;rounded=0;orthogonalLoop=1;jettySize=auto;html=1;entryX=0.5;entryY=1;entryDx=0;entryDy=0;exitX=0.5;exitY=1;exitDx=0;exitDy=0;strokeWidth=2;labelBackgroundColor=none;fontColor=default;fillColor=#647687;strokeColor=#647687;" parent="1" source="UFHqkpC1WFeZx_tm6F1n-18" target="UFHqkpC1WFeZx_tm6F1n-83" edge="1">
          <mxGeometry relative="1" as="geometry">
            <mxPoint x="1240" y="310" as="targetPoint" />
            <Array as="points">
              <mxPoint x="500" y="800" />
              <mxPoint x="960" y="800" />
              <mxPoint x="960" y="320" />
              <mxPoint x="1250" y="320" />
            </Array>
          </mxGeometry>
        </mxCell>
        <mxCell id="UFHqkpC1WFeZx_tm6F1n-87" value="" style="rounded=1;whiteSpace=wrap;html=1;labelBackgroundColor=none;fillColor=#647687;fontColor=#ffffff;strokeColor=#314354;" parent="1" vertex="1">
          <mxGeometry x="1230" y="390" width="40" height="40" as="geometry" />
        </mxCell>
        <mxCell id="UFHqkpC1WFeZx_tm6F1n-84" style="edgeStyle=orthogonalEdgeStyle;rounded=0;orthogonalLoop=1;jettySize=auto;html=1;exitX=0.5;exitY=1;exitDx=0;exitDy=0;entryX=0.5;entryY=1;entryDx=0;entryDy=0;strokeWidth=2;labelBackgroundColor=none;fontColor=default;fillColor=#647687;strokeColor=#647687;" parent="1" source="UFHqkpC1WFeZx_tm6F1n-19" target="UFHqkpC1WFeZx_tm6F1n-87" edge="1">
          <mxGeometry relative="1" as="geometry">
            <mxPoint x="1250" y="470" as="targetPoint" />
            <Array as="points">
              <mxPoint x="660" y="800" />
              <mxPoint x="960" y="800" />
              <mxPoint x="960" y="480" />
              <mxPoint x="1250" y="480" />
            </Array>
          </mxGeometry>
        </mxCell>
        <mxCell id="UFHqkpC1WFeZx_tm6F1n-88" value="" style="rounded=1;whiteSpace=wrap;html=1;labelBackgroundColor=none;fillColor=#647687;fontColor=#ffffff;strokeColor=#314354;" parent="1" vertex="1">
          <mxGeometry x="1180" y="710" width="40" height="40" as="geometry" />
        </mxCell>
        <mxCell id="UFHqkpC1WFeZx_tm6F1n-89" style="edgeStyle=orthogonalEdgeStyle;rounded=0;orthogonalLoop=1;jettySize=auto;html=1;entryX=0.5;entryY=1;entryDx=0;entryDy=0;exitX=0.5;exitY=1;exitDx=0;exitDy=0;strokeWidth=2;labelBackgroundColor=none;fontColor=default;fillColor=#647687;strokeColor=#647687;" parent="1" source="UFHqkpC1WFeZx_tm6F1n-20" target="UFHqkpC1WFeZx_tm6F1n-88" edge="1">
          <mxGeometry relative="1" as="geometry">
            <Array as="points">
              <mxPoint x="820" y="800" />
              <mxPoint x="1200" y="800" />
            </Array>
          </mxGeometry>
        </mxCell>
        <mxCell id="UFHqkpC1WFeZx_tm6F1n-90" value="" style="rounded=1;whiteSpace=wrap;html=1;labelBackgroundColor=none;fillColor=#60a917;fontColor=#ffffff;strokeColor=#2D7600;" parent="1" vertex="1">
          <mxGeometry x="1280.5" y="230" width="40" height="40" as="geometry" />
        </mxCell>
        <mxCell id="UFHqkpC1WFeZx_tm6F1n-91" value="" style="rounded=1;whiteSpace=wrap;html=1;labelBackgroundColor=none;fillColor=#60a917;fontColor=#ffffff;strokeColor=#2D7600;" parent="1" vertex="1">
          <mxGeometry x="1330" y="230" width="40" height="40" as="geometry" />
        </mxCell>
        <mxCell id="UFHqkpC1WFeZx_tm6F1n-92" value="" style="rounded=1;whiteSpace=wrap;html=1;labelBackgroundColor=none;fillColor=#60a917;fontColor=#ffffff;strokeColor=#2D7600;" parent="1" vertex="1">
          <mxGeometry x="1280.5" y="390" width="40" height="40" as="geometry" />
        </mxCell>
        <mxCell id="UFHqkpC1WFeZx_tm6F1n-93" value="" style="rounded=1;whiteSpace=wrap;html=1;labelBackgroundColor=none;fillColor=#60a917;fontColor=#ffffff;strokeColor=#2D7600;" parent="1" vertex="1">
          <mxGeometry x="1330" y="390" width="40" height="40" as="geometry" />
        </mxCell>
        <mxCell id="UFHqkpC1WFeZx_tm6F1n-94" value="" style="rounded=1;whiteSpace=wrap;html=1;labelBackgroundColor=none;fillColor=#60a917;fontColor=#ffffff;strokeColor=#2D7600;" parent="1" vertex="1">
          <mxGeometry x="1230" y="550" width="40" height="40" as="geometry" />
        </mxCell>
        <mxCell id="UFHqkpC1WFeZx_tm6F1n-95" value="" style="rounded=1;whiteSpace=wrap;html=1;labelBackgroundColor=none;fillColor=#60a917;fontColor=#ffffff;strokeColor=#2D7600;" parent="1" vertex="1">
          <mxGeometry x="1280.5" y="550" width="40" height="40" as="geometry" />
        </mxCell>
        <mxCell id="UFHqkpC1WFeZx_tm6F1n-96" value="" style="rounded=1;whiteSpace=wrap;html=1;labelBackgroundColor=none;fillColor=#60a917;fontColor=#ffffff;strokeColor=#2D7600;" parent="1" vertex="1">
          <mxGeometry x="1330" y="550" width="40" height="40" as="geometry" />
        </mxCell>
        <mxCell id="UFHqkpC1WFeZx_tm6F1n-97" value="" style="rounded=1;whiteSpace=wrap;html=1;labelBackgroundColor=none;fillColor=#60a917;fontColor=#ffffff;strokeColor=#2D7600;" parent="1" vertex="1">
          <mxGeometry x="1230" y="710" width="40" height="40" as="geometry" />
        </mxCell>
        <mxCell id="UFHqkpC1WFeZx_tm6F1n-98" value="" style="rounded=1;whiteSpace=wrap;html=1;labelBackgroundColor=none;fillColor=#60a917;fontColor=#ffffff;strokeColor=#2D7600;" parent="1" vertex="1">
          <mxGeometry x="1280.5" y="710" width="40" height="40" as="geometry" />
        </mxCell>
        <mxCell id="UFHqkpC1WFeZx_tm6F1n-99" value="" style="rounded=1;whiteSpace=wrap;html=1;labelBackgroundColor=none;fillColor=#60a917;fontColor=#ffffff;strokeColor=#2D7600;" parent="1" vertex="1">
          <mxGeometry x="1330" y="710" width="40" height="40" as="geometry" />
        </mxCell>
        <mxCell id="UFHqkpC1WFeZx_tm6F1n-100" style="edgeStyle=orthogonalEdgeStyle;rounded=0;orthogonalLoop=1;jettySize=auto;html=1;entryX=0.5;entryY=1;entryDx=0;entryDy=0;exitX=0.5;exitY=1;exitDx=0;exitDy=0;strokeWidth=2;labelBackgroundColor=none;fontColor=default;fillColor=#008a00;strokeColor=#60A917;" parent="1" source="UFHqkpC1WFeZx_tm6F1n-1" target="UFHqkpC1WFeZx_tm6F1n-90" edge="1">
          <mxGeometry relative="1" as="geometry">
            <Array as="points">
              <mxPoint x="180" y="480" />
              <mxPoint x="1020" y="480" />
              <mxPoint x="1030" y="480" />
              <mxPoint x="1020" y="340" />
              <mxPoint x="1301" y="340" />
            </Array>
          </mxGeometry>
        </mxCell>
        <mxCell id="UFHqkpC1WFeZx_tm6F1n-101" value="" style="edgeStyle=orthogonalEdgeStyle;rounded=0;orthogonalLoop=1;jettySize=auto;html=1;exitX=0.5;exitY=1;exitDx=0;exitDy=0;entryX=0.5;entryY=1;entryDx=0;entryDy=0;strokeWidth=2;labelBackgroundColor=none;fontColor=default;fillColor=#008a00;strokeColor=#60A917;" parent="1" source="UFHqkpC1WFeZx_tm6F1n-7" target="UFHqkpC1WFeZx_tm6F1n-92" edge="1">
          <mxGeometry relative="1" as="geometry">
            <mxPoint x="760" y="500" as="targetPoint" />
            <Array as="points">
              <mxPoint x="340" y="480" />
              <mxPoint x="1020" y="480" />
              <mxPoint x="1020" y="500" />
              <mxPoint x="1301" y="500" />
            </Array>
          </mxGeometry>
        </mxCell>
        <mxCell id="UFHqkpC1WFeZx_tm6F1n-102" style="edgeStyle=orthogonalEdgeStyle;rounded=0;orthogonalLoop=1;jettySize=auto;html=1;entryX=0.5;entryY=1;entryDx=0;entryDy=0;exitX=0.5;exitY=1;exitDx=0;exitDy=0;strokeWidth=2;labelBackgroundColor=none;fontColor=default;fillColor=#008a00;strokeColor=#60A917;" parent="1" source="UFHqkpC1WFeZx_tm6F1n-8" target="UFHqkpC1WFeZx_tm6F1n-94" edge="1">
          <mxGeometry relative="1" as="geometry">
            <Array as="points">
              <mxPoint x="500" y="480" />
              <mxPoint x="1020" y="480" />
              <mxPoint x="1020" y="660" />
              <mxPoint x="1250" y="660" />
            </Array>
          </mxGeometry>
        </mxCell>
        <mxCell id="UFHqkpC1WFeZx_tm6F1n-103" style="edgeStyle=orthogonalEdgeStyle;rounded=0;orthogonalLoop=1;jettySize=auto;html=1;entryX=0.5;entryY=1;entryDx=0;entryDy=0;exitX=0.5;exitY=1;exitDx=0;exitDy=0;strokeWidth=2;labelBackgroundColor=none;fontColor=default;fillColor=#008a00;strokeColor=#60A917;" parent="1" source="UFHqkpC1WFeZx_tm6F1n-10" target="UFHqkpC1WFeZx_tm6F1n-91" edge="1">
          <mxGeometry relative="1" as="geometry">
            <Array as="points">
              <mxPoint x="820" y="480" />
              <mxPoint x="1020" y="480" />
              <mxPoint x="1020" y="340" />
              <mxPoint x="1350" y="340" />
            </Array>
          </mxGeometry>
        </mxCell>
        <mxCell id="UFHqkpC1WFeZx_tm6F1n-104" value="" style="edgeStyle=orthogonalEdgeStyle;rounded=0;orthogonalLoop=1;jettySize=auto;html=1;entryX=0.5;entryY=1;entryDx=0;entryDy=0;exitX=0.5;exitY=1;exitDx=0;exitDy=0;strokeWidth=2;labelBackgroundColor=none;fontColor=default;fillColor=#008a00;strokeColor=#60A917;" parent="1" source="UFHqkpC1WFeZx_tm6F1n-9" target="UFHqkpC1WFeZx_tm6F1n-97" edge="1">
          <mxGeometry relative="1" as="geometry">
            <Array as="points">
              <mxPoint x="660" y="480" />
              <mxPoint x="1020" y="480" />
              <mxPoint x="1020" y="780" />
              <mxPoint x="1250" y="780" />
            </Array>
          </mxGeometry>
        </mxCell>
        <mxCell id="UFHqkpC1WFeZx_tm6F1n-105" style="edgeStyle=orthogonalEdgeStyle;rounded=0;orthogonalLoop=1;jettySize=auto;html=1;entryX=0.5;entryY=1;entryDx=0;entryDy=0;exitX=0.5;exitY=1;exitDx=0;exitDy=0;strokeWidth=2;labelBackgroundColor=none;fontColor=default;fillColor=#008a00;strokeColor=#60A917;" parent="1" source="UFHqkpC1WFeZx_tm6F1n-11" target="UFHqkpC1WFeZx_tm6F1n-93" edge="1">
          <mxGeometry relative="1" as="geometry">
            <Array as="points">
              <mxPoint x="180" y="640" />
              <mxPoint x="1020" y="640" />
              <mxPoint x="1020" y="500" />
              <mxPoint x="1350" y="500" />
            </Array>
          </mxGeometry>
        </mxCell>
        <mxCell id="UFHqkpC1WFeZx_tm6F1n-106" style="edgeStyle=orthogonalEdgeStyle;rounded=0;orthogonalLoop=1;jettySize=auto;html=1;entryX=0.5;entryY=1;entryDx=0;entryDy=0;exitX=0.5;exitY=1;exitDx=0;exitDy=0;strokeWidth=2;labelBackgroundColor=none;fontColor=default;fillColor=#008a00;strokeColor=#60A917;" parent="1" source="UFHqkpC1WFeZx_tm6F1n-12" target="UFHqkpC1WFeZx_tm6F1n-95" edge="1">
          <mxGeometry relative="1" as="geometry">
            <Array as="points">
              <mxPoint x="340" y="640" />
              <mxPoint x="1020" y="640" />
              <mxPoint x="1020" y="660" />
              <mxPoint x="1301" y="660" />
            </Array>
          </mxGeometry>
        </mxCell>
        <mxCell id="UFHqkpC1WFeZx_tm6F1n-107" style="edgeStyle=orthogonalEdgeStyle;rounded=0;orthogonalLoop=1;jettySize=auto;html=1;entryX=0.5;entryY=1;entryDx=0;entryDy=0;exitX=0.5;exitY=1;exitDx=0;exitDy=0;strokeWidth=2;labelBackgroundColor=none;fontColor=default;fillColor=#008a00;strokeColor=#60A917;" parent="1" source="UFHqkpC1WFeZx_tm6F1n-13" target="UFHqkpC1WFeZx_tm6F1n-98" edge="1">
          <mxGeometry relative="1" as="geometry">
            <Array as="points">
              <mxPoint x="500" y="640" />
              <mxPoint x="1020" y="640" />
              <mxPoint x="1020" y="780" />
              <mxPoint x="1301" y="780" />
            </Array>
          </mxGeometry>
        </mxCell>
        <mxCell id="UFHqkpC1WFeZx_tm6F1n-108" style="edgeStyle=orthogonalEdgeStyle;rounded=0;orthogonalLoop=1;jettySize=auto;html=1;entryX=0.5;entryY=1;entryDx=0;entryDy=0;exitX=0.5;exitY=1;exitDx=0;exitDy=0;strokeWidth=2;labelBackgroundColor=none;fontColor=default;fillColor=#008a00;strokeColor=#60A917;" parent="1" source="UFHqkpC1WFeZx_tm6F1n-14" target="UFHqkpC1WFeZx_tm6F1n-96" edge="1">
          <mxGeometry relative="1" as="geometry">
            <Array as="points">
              <mxPoint x="660" y="640" />
              <mxPoint x="1020" y="640" />
              <mxPoint x="1020" y="660" />
              <mxPoint x="1350" y="660" />
            </Array>
          </mxGeometry>
        </mxCell>
        <mxCell id="UFHqkpC1WFeZx_tm6F1n-109" style="edgeStyle=orthogonalEdgeStyle;rounded=0;orthogonalLoop=1;jettySize=auto;html=1;entryX=0.5;entryY=1;entryDx=0;entryDy=0;exitX=0.5;exitY=1;exitDx=0;exitDy=0;strokeWidth=2;labelBackgroundColor=none;fontColor=default;fillColor=#008a00;strokeColor=#60A917;" parent="1" source="UFHqkpC1WFeZx_tm6F1n-15" target="UFHqkpC1WFeZx_tm6F1n-99" edge="1">
          <mxGeometry relative="1" as="geometry">
            <Array as="points">
              <mxPoint x="820" y="640" />
              <mxPoint x="1020" y="640" />
              <mxPoint x="1020" y="780" />
              <mxPoint x="1350" y="780" />
            </Array>
          </mxGeometry>
        </mxCell>
      </root>
    </mxGraphModel>
  </diagram>
</mxfile>
